<svg version="1" xmlns="http://www.w3.org/2000/svg" width="652" height="652" viewBox="0 0 489.000000 489.000000"><path d="M62.9.4c-.2.2-2 .7-3.9 1-4.3.7-11.1 2.8-16.4 5.1C22.2 15.2 4.7 38.3 1.3 61c-.5 3-.8 86.7-.8 186C.6 448 0 431 7.4 446.5c10.5 22.2 32.7 38.3 56.6 41.1 3 .3 5.8.8 6.3 1.1.4.2.7.1.7-.4 0-.4 3.1-.8 7-.8 3.8 0 7 .2 7 .5 0 .5 2.7.4 10-.3 1.4-.1 3.1.2 3.8.7.7.5 1.2.5 1.2 0s1.8-.9 4-.9 4 .3 4 .8c0 .4.5.5 1.2.1 1.7-1.1 5.8-1.1 5.8-.1 0 .4.6.5 1.3 0 1.6-1 3.8-1 5.8-.1.9.4 1.9.4 2.3.1 1.2-1.2 5.6-1.1 5.6.1 0 .8.3.8.8.1.9-1.4 9.5-1.4 10.4 0 .5.7.8.7.8-.1 0-1.2 3.8-1.3 5.6-.1.6.3 1.4.3 1.8 0 1.1-1.1 4.6-1 4.6.1 0 .7.3.8.8.1 1-1.4 6.2-1.5 6.2-.1 0 .7.3.7.8.1 1-1.4 11.5-1.4 12.4-.1.6.8.8.8.8 0 0-1.5 7-1.4 7 .1 0 .5.5.3 1-.5.9-1.3 1.1-1.3 2 0 .5.8 1 1 1 .4s2.8-1 7-1.1c4.4 0 6.7.4 6.3 1-.4.6-.1.7.8.1 2.1-1.3 11.9-1.4 11.9 0 0 .7.3.7.8.1 1-1.5 7.4-1.6 9.1-.2.8.7 1.2.7.8.1-.4-.7 28.2-1 97.1-1 53.7.1 99.6-.2 102-.5 2.3-.3 4.5-.2 4.8.3.3.4 0 .8-.7.8s-1 .2-.7.5c.2.3 3.7-.4 7.8-1.6 25.1-6.9 44.2-25.1 52.1-49.4 2-6.4 2.3-9.6 2.8-35 .7-32.9.6-291.2-.2-322.5-.4-18.7-.7-22.4-2.7-28.5-6.7-20.8-19.9-36.1-39.1-44.9-14.7-6.8-2.5-6.4-202-6.5C144.6 0 63.1.2 62.9.4zm361.6 49.5c5.6 2.5 10.2 6.7 12.8 11.5 2 3.8 2.1 5.6 2.3 28.8l.3 24.8h-48.5l-1.3-4.8c-1.8-6.2-6.6-14-10.7-17.5-6.1-5.2-14.5-4.9-21 .7-4.3 3.7-9.7 13.5-10.6 19.1-.3 2-1.2 2-44 2.3l-43.7.2-1.2-4.2c-4.4-16.4-17.2-25.8-27.8-20.4-5.6 2.9-11.5 11.4-14.1 20.3l-1.3 4.3h-19.6l-1.2-4.2c-4.4-16.4-17.2-25.8-27.8-20.4-5.6 2.9-11.5 11.4-14.1 20.3l-1.3 4.3h-18.6l-1.3-4.3c-2.6-9-8.6-17.4-14.3-20.1-10.6-5.1-22.4 3-27.1 18.6l-1.8 5.8H48.8l.4-24.8c.3-21.6.6-25.1 2.2-28.2 3.4-6.5 8.7-11 15.6-13.1 1.4-.4 81.5-.8 178-.8 167.6 0 175.7 0 179.5 1.8zm-335 92.8c.9 5 5 13.1 8.3 16.6 3.3 3.5 9.3 6.7 12.6 6.7 8.6 0 18.2-10.3 21.7-23.2l1-3.8 9.3.1 9.4.1 1.2 4.5c2.4 9.6 8 17.5 14.5 20.4 5.2 2.4 8.2 2.4 13-.2 6.7-3.6 10-8.1 14-18.9l2-5.5 9.6-.3 9.6-.3 1.2 4.7c3.6 14.1 13.9 23.8 23.4 22 7.3-1.4 15-10 18.2-20.5l1.8-6 43.3.2c23.9.1 43.4.5 43.4.9 0 2.2 4.7 12.8 7.1 16.5 6.1 8.8 15.7 11.3 23.7 6 5.1-3.3 8.7-8.5 11.7-16.9l2.3-6.3 23.9-.2 24-.2.1 47.7v47.7l-23.2-.1c-12.7-.1-23.6-.2-24.2-.3-.6 0-1.7-2-2.4-4.4-4.1-13.1-13-21.3-22.2-20.4-8.2.7-15.9 8.7-18.8 19.4-.8 2.7-1.7 5-2.2 5.3-.6.5-12 .5-16.3.1-.6-.1-1.6-2-2.3-4.4C325 218.1 316 209 307.7 209s-16.9 8.4-20.5 20.1l-1.7 5.4h-63.9l-1.2-4.1c-4.7-16.1-15.9-24.6-27.1-20.3-6.1 2.3-12.4 10.7-15.3 20.4l-1.2 4h-43.7l-2.2-6c-4.5-12.3-10.8-18.6-19.3-19.3-4.2-.3-5.8.1-9.2 2.3-4.9 3.3-10 10.5-12 17-.8 2.7-1.8 5.2-2.4 5.5-.7.4-35.7.6-38.2.1-.3 0-.6-21.5-.7-47.6L49 139h39.8l.7 3.7zm1 123.5c9.1 26.9 32.8 25.7 41.1-2.2l1.4-4.7 21.9-.1h21.8l1.6 5.7c3 10.5 10.6 19.1 18.4 20.7 9.2 1.8 19.2-7.1 23.7-21.2l1.7-5.2h31.5c23 0 31.6.3 31.9 1.1 2.6 9.4 5.4 14.7 10.1 19.4 4.1 4.1 6 5.3 9.5 5.8 5.7.8 10.5-1.2 15.2-6.4 4.1-4.6 5.8-7.5 8.1-14.7l1.6-5 8.3-.2 8.2-.2 2.4 6.8c4 11.9 12.3 20.2 20.2 20.2 3.9-.1 10.2-3.4 13.4-7.1 2.9-3.5 7.3-12.1 8-15.8.2-1.2.6-2.5.9-3 .4-.5 11.1-.8 24.4-.8l23.7.2.1 47.1.1 47.1h-9.9c-9.8 0-10-.1-11-2.6-5.1-13.1-8.5-17.9-14.9-21.2-2.1-1-5-1.9-6.5-1.9-4.2 0-10.9 3.7-13.9 7.5-3.1 4.1-7.5 13.3-7.5 15.7 0 2.2-2.7 2.8-10.9 2.5l-6.4-.2-1.9-5.5c-5.3-15.8-16.6-23.3-27-18.1-6.8 3.5-10.6 9.2-15.1 22.2-.5 1.5-3.4 1.7-28 1.7l-27.5-.1-1.2-4.1c-3.9-12.9-12.4-21.6-21.1-21.6-7.5 0-15.8 8-19.5 19-1.1 3-2.3 5.8-2.8 6.1-.4.4-19.1.6-41.3.5l-40.6-.1-1.2-4c-4.2-14.2-14.1-22.9-23.9-21.1-6.7 1.3-13.9 9.6-17.1 19.7l-1.8 5.6H68.8l-19.8.1v-47.3l.1-47.3 19.6.2 19.5.1 2.3 6.7zm-2.9 112.7c.5 0 1.6 2.3 2.3 5 3 11.7 12.1 21 20.6 21.1 9 0 18.7-10.6 21.8-24l.6-2.5H215l.6 3c2 9.4 9 19.5 15.2 22 11.1 4.7 21.3-2.8 27.2-20l1.7-4.9 26.7-.1c16.8 0 27 .4 27.5 1 .4.5 1.5 3.5 2.5 6.5 3.5 10.9 11.9 19 19.6 19 3.5 0 8.5-2.1 11.7-4.8 3.5-3.1 8.1-11 9.4-16.3.7-2.7 1.8-4.9 2.3-5 .6-.1 4.3-.2 8.2-.3l7.2-.2 1.7 5.6c4.9 15.7 15.5 24 25.9 20 4.7-1.8 10.2-7.8 13-14.2 5.2-12.2 4.1-11.3 13.6-11.3 4.7-.1 9 .1 9.6.3.8.2 1.1 7.1 1.2 21.9 0 17.3-.2 22.4-1.5 25.5-2 4.9-9 11.1-14.4 12.7-3.3 1-41.2 1.3-179.8 1.3-164.3 0-175.9-.1-180.1-1.8-5.6-2.1-10.4-6.6-13-11.9-1.8-3.7-2-6.2-2-26.1v-21.9l18.7.1c10.4.1 19.3.2 19.9.3z"/></svg>